<?xml version="1.0" encoding="UTF-8" standalone="no"?>
<svg
   xmlns:dc="http://purl.org/dc/elements/1.1/"
   xmlns:cc="http://creativecommons.org/ns#"
   xmlns:rdf="http://www.w3.org/1999/02/22-rdf-syntax-ns#"
   xmlns:svg="http://www.w3.org/2000/svg"
   xmlns="http://www.w3.org/2000/svg"
   xmlns:xlink="http://www.w3.org/1999/xlink"
   width="800"
   height="800"
   viewBox="0 0 800.00001 800.00001"
   id="svg4178"
   version="1.1">
  <defs
     id="defs4180">
    <linearGradient
       id="linearGradient4994">
      <stop
         style="stop-color:#0e0f0e;stop-opacity:1;"
         offset="0"
         id="stop4996" />
      <stop
         style="stop-color:#0e0f0e;stop-opacity:0;"
         offset="1"
         id="stop4998" />
    </linearGradient>
    <linearGradient
       id="linearGradient5586">
      <stop
         id="stop5588"
         offset="0"
         style="stop-color:#000000;stop-opacity:1;" />
      <stop
         id="stop5590"
         offset="1"
         style="stop-color:#000000;stop-opacity:0;" />
    </linearGradient>
    <linearGradient
       gradientUnits="userSpaceOnUse"
       y2="964.82843"
       x2="-124.28151"
       y1="554.70648"
       x1="294.98761"
       id="linearGradient5592"
       xlink:href="#linearGradient5586" />
    <mask
       id="mask5610"
       maskUnits="userSpaceOnUse">
      <circle
         style="color:#000000;clip-rule:nonzero;display:inline;overflow:visible;visibility:visible;opacity:1;isolation:auto;mix-blend-mode:normal;color-interpolation:sRGB;color-interpolation-filters:linearRGB;solid-color:#000000;solid-opacity:1;fill:#ffffff;fill-opacity:1;fill-rule:nonzero;stroke:none;stroke-width:0.40000001;stroke-miterlimit:4;stroke-dasharray:none;stroke-opacity:1;color-rendering:auto;image-rendering:auto;shape-rendering:auto;text-rendering:auto;enable-background:accumulate"
         id="circle5612"
         cx="400"
         cy="634.50513"
         r="780" />
    </mask>
    <mask
       id="mask5614"
       maskUnits="userSpaceOnUse">
      <circle
         style="color:#000000;clip-rule:nonzero;display:inline;overflow:visible;visibility:visible;opacity:1;isolation:auto;mix-blend-mode:normal;color-interpolation:sRGB;color-interpolation-filters:linearRGB;solid-color:#000000;solid-opacity:1;fill:#ffffff;fill-opacity:1;fill-rule:nonzero;stroke:none;stroke-width:0.40000001;stroke-miterlimit:4;stroke-dasharray:none;stroke-opacity:1;color-rendering:auto;image-rendering:auto;shape-rendering:auto;text-rendering:auto;enable-background:accumulate"
         id="circle5616"
         cx="400"
         cy="400.00003"
         r="400" />
    </mask>
    <linearGradient
       xlink:href="#linearGradient4994"
       id="linearGradient5002"
       x1="354.23758"
       y1="444.9241"
       x2="67.355827"
       y2="736.39355"
       gradientUnits="userSpaceOnUse" />
    <mask
       maskUnits="userSpaceOnUse"
       id="mask5006">
      <circle
         r="400"
         cy="400"
         cx="400"
         id="circle5008"
         style="color:#000000;clip-rule:nonzero;display:inline;overflow:visible;visibility:visible;opacity:1;isolation:auto;mix-blend-mode:normal;color-interpolation:sRGB;color-interpolation-filters:linearRGB;solid-color:#000000;solid-opacity:1;fill:#ffffff;fill-opacity:1;fill-rule:nonzero;stroke:none;stroke-width:0.69999999;stroke-miterlimit:4;stroke-dasharray:none;stroke-opacity:0.54216865;color-rendering:auto;image-rendering:auto;shape-rendering:auto;text-rendering:auto;enable-background:accumulate" />
    </mask>
    <mask
       maskUnits="userSpaceOnUse"
       id="mask5010">
      <circle
         r="400"
         cy="400"
         cx="400"
         id="circle5012"
         style="color:#000000;clip-rule:nonzero;display:inline;overflow:visible;visibility:visible;opacity:1;isolation:auto;mix-blend-mode:normal;color-interpolation:sRGB;color-interpolation-filters:linearRGB;solid-color:#000000;solid-opacity:1;fill:#ffffff;fill-opacity:1;fill-rule:nonzero;stroke:none;stroke-width:0.69999999;stroke-miterlimit:4;stroke-dasharray:none;stroke-opacity:0.54216865;color-rendering:auto;image-rendering:auto;shape-rendering:auto;text-rendering:auto;enable-background:accumulate" />
    </mask>
  </defs>
  <metadata
     id="metadata4183">
    <rdf:RDF>
      <cc:Work
         rdf:about="">
        <dc:format>image/svg+xml</dc:format>
        <dc:type
           rdf:resource="http://purl.org/dc/dcmitype/StillImage" />
        <dc:title></dc:title>
      </cc:Work>
    </rdf:RDF>
  </metadata>
  <circle
     style="color:#000000;clip-rule:nonzero;display:inline;overflow:visible;visibility:visible;opacity:1;isolation:auto;mix-blend-mode:normal;color-interpolation:sRGB;color-interpolation-filters:linearRGB;solid-color:#000000;solid-opacity:1;fill:#1c8adb;fill-opacity:1;fill-rule:nonzero;stroke:none;stroke-width:0.69999999;stroke-miterlimit:4;stroke-dasharray:none;stroke-opacity:0.54216865;color-rendering:auto;image-rendering:auto;shape-rendering:auto;text-rendering:auto;enable-background:accumulate"
     id="circle5004"
     cx="400"
     cy="400"
     r="400" />
  <path
     style="color:#000000;clip-rule:nonzero;display:inline;overflow:visible;visibility:visible;opacity:0.42000002;isolation:auto;mix-blend-mode:normal;color-interpolation:sRGB;color-interpolation-filters:linearRGB;solid-color:#000000;solid-opacity:1;fill:url(#linearGradient5002);fill-opacity:1;fill-rule:nonzero;stroke:none;stroke-width:0.69999999;stroke-miterlimit:4;stroke-dasharray:none;stroke-opacity:0.54216865;color-rendering:auto;image-rendering:auto;shape-rendering:auto;text-rendering:auto;enable-background:accumulate"
     d="M 176.27148,269.5332 1.3269541,444.47773 C 16.189601,608.72059 106.82468,745.10922 328.88271,796.75221 L 536.38477,589.19922 c 0.61335,-0.52364 1.21273,-1.06626 1.78711,-1.64063 5.77934,-5.77934 9.02734,-13.6178 9.02734,-21.79101 0,-2.62084 -0.33828,-5.20603 -0.98242,-7.70117 l 30.39062,-31.86524 2.16602,0 0,-0.21875 0.0781,0 44.87696,-167.48633 0,-18.49023 -172.27344,0 -172.27344,0 0,-70.47266 -18.49023,0 z"
     id="path4163"
     mask="url(#mask5010)" />
  <path
     style="color:#000000;clip-rule:nonzero;display:inline;overflow:visible;visibility:visible;opacity:1;isolation:auto;mix-blend-mode:normal;color-interpolation:sRGB;color-interpolation-filters:linearRGB;solid-color:#000000;solid-opacity:1;fill:#f8fffd;fill-opacity:1;fill-rule:nonzero;stroke:none;stroke-width:0.69999999;stroke-miterlimit:4;stroke-dasharray:none;stroke-opacity:0.54216865;color-rendering:auto;image-rendering:auto;shape-rendering:auto;text-rendering:auto;enable-background:accumulate"
     d="m 176.27118,269.53349 0,18.49029 84.4197,0 0,51.98224 0,18.49027 44.87747,167.48634 0.0771,0 0,0.21908 273.12891,0 0,-0.21908 0.0771,0 44.87746,-167.48634 0,-18.49027 -344.54763,0 0,-70.47253 -18.49029,0 -84.4197,0 z m 103.56245,88.9628 6.24529,0 5.99008,10.37432 -6.45715,11.18806 -5.77822,-21.56238 z m 13.36452,0 4.86333,0 -2.43167,4.21089 -2.43166,-4.21089 z m 11.98016,0 17.88358,0 5.98767,10.37432 -14.92946,25.86473 -14.93187,-25.86473 5.99008,-10.37432 z m 25.0004,0 4.86332,0 -2.43165,4.21089 -2.43167,-4.21089 z m 11.98017,0 17.88357,0 5.98768,10.37432 -14.92946,25.86473 -14.93187,-25.86473 5.99008,-10.37432 z m 25.0004,0 4.86333,0 -2.43167,4.21089 -2.43166,-4.21089 z m 11.98015,0 17.88359,0 5.98767,10.37432 -14.92946,25.86473 -14.93187,-25.86473 5.99007,-10.37432 z m 25.00042,0 4.86331,0 -2.43165,4.21089 -2.43166,-4.21089 z m 11.98016,0 17.88357,0 5.98768,10.37432 -14.92946,25.86473 -14.93187,-25.86473 5.99008,-10.37432 z m 25.0004,0 4.86332,0 -2.43166,4.21089 -2.43166,-4.21089 z m 11.98015,0 17.88359,0 5.98767,10.37432 -14.92947,25.86473 -14.93186,-25.86473 5.99007,-10.37432 z m 25.00042,0 4.86332,0 -2.43166,4.21089 -2.43166,-4.21089 z m 11.98015,0 17.88359,0 5.98767,10.37432 -14.92946,25.86473 -14.93187,-25.86473 5.99007,-10.37432 z m 25.0004,0 4.86333,0 -2.43165,4.21089 -2.43168,-4.21089 z m 11.98017,0 17.88358,0 5.98766,10.37432 -14.92944,25.86473 -14.93188,-25.86473 5.99008,-10.37432 z m 25.0004,0 4.86333,0 -2.43166,4.21089 -2.43167,-4.21089 z m 11.98016,0 17.88359,0 5.98766,10.37432 -14.92946,25.86473 -14.93186,-25.86473 5.99007,-10.37432 z m 25.0004,0 4.86333,0 -2.43165,4.21089 -2.43168,-4.21089 z m 11.98017,0 3.56324,0 -4.92594,18.38917 -4.62738,-8.01485 5.99008,-10.37432 z m -305.39302,16.53775 14.92946,25.86471 -13.22488,22.91063 -9.46664,-35.32898 7.76206,-13.44636 z m 36.98057,0 14.92946,25.86471 -14.92946,25.86232 -14.93186,-25.86232 14.93186,-25.86471 z m 36.98056,0 14.92946,25.86471 -14.92946,25.86232 -14.93185,-25.86232 14.93185,-25.86471 z m 36.98057,0 14.92946,25.86471 -14.92946,25.86232 -14.93186,-25.86232 14.93186,-25.86471 z m 36.98056,0 14.92947,25.86471 -14.92947,25.86232 -14.93185,-25.86232 14.93185,-25.86471 z m 36.98057,0 14.92946,25.86471 -14.92946,25.86232 -14.93186,-25.86232 14.93186,-25.86471 z m 36.98057,0 14.92946,25.86471 -14.92946,25.86232 -14.93186,-25.86232 14.93186,-25.86471 z m 36.98056,0 14.92946,25.86471 -14.92946,25.86232 -14.93187,-25.86232 14.93187,-25.86471 z m 36.98057,0 5.92747,10.27077 -9.46422,35.32896 -11.39512,-19.73502 14.93187,-25.86471 z m -277.35424,32.02575 14.92946,25.86471 -14.92946,25.86233 -13.83401,-23.96033 -0.69579,-2.59779 14.5298,-25.16892 z m 36.98057,0 14.92946,25.86471 -14.92946,25.86233 -14.93187,-25.86233 14.93187,-25.86471 z m 36.98056,0 14.92946,25.86471 -14.92946,25.86233 -14.93187,-25.86233 14.93187,-25.86471 z m 36.98057,0 14.92946,25.86471 -14.92946,25.86233 -14.93187,-25.86233 14.93187,-25.86471 z m 36.98055,0 14.92947,25.86471 -14.92947,25.86233 -14.93186,-25.86233 14.93186,-25.86471 z m 36.98058,0 14.92946,25.86471 -14.92946,25.86233 -14.93187,-25.86233 14.93187,-25.86471 z m 36.98057,0 14.92944,25.86471 -14.92944,25.86233 -14.93188,-25.86233 14.93188,-25.86471 z m 36.98055,0 12.69522,21.99572 -3.869,14.44072 -8.82622,15.2906 -14.93186,-25.86233 14.93186,-25.86471 z m -240.37367,32.02814 14.92946,25.86232 -14.92946,25.86233 -14.93186,-25.86233 14.93186,-25.86232 z m 36.98056,0 14.92946,25.86232 -14.92946,25.86233 -14.93185,-25.86233 14.93185,-25.86232 z m 36.98057,0 14.92946,25.86232 -14.92946,25.86233 -14.93186,-25.86233 14.93186,-25.86232 z m 36.98056,0 14.92947,25.86232 -14.92947,25.86233 -14.93185,-25.86233 14.93185,-25.86232 z m 36.98057,0 14.92946,25.86232 -14.92946,25.86233 -14.93186,-25.86233 14.93186,-25.86232 z m 36.98057,0 14.92946,25.86232 -14.92946,25.86233 -14.93186,-25.86233 14.93186,-25.86232 z m 36.98056,0 14.92946,25.86232 -14.92946,25.86233 -14.93187,-25.86233 14.93187,-25.86232 z m -248.04425,18.74548 4.10975,7.11684 -1.50475,2.60501 -2.605,-9.72185 z m 7.67058,13.28027 14.92946,25.86233 -6.19714,10.73542 -3.03597,0 -8.50361,-31.73442 2.80726,-4.86333 z m 36.98057,0 14.92946,25.86233 -6.19714,10.73542 -17.46706,0 -6.19713,-10.73542 14.93187,-25.86233 z m 36.98056,0 14.92946,25.86233 -6.19714,10.73542 -17.46705,0 -6.19714,-10.73542 14.93187,-25.86233 z m 36.98057,0 14.92946,25.86233 -6.19714,10.73542 -17.46706,0 -6.19713,-10.73542 14.93187,-25.86233 z m 36.98055,0 14.92947,25.86233 -6.19714,10.73542 -17.46705,0 -6.19714,-10.73542 14.93186,-25.86233 z m 36.98058,0 14.92946,25.86233 -6.19714,10.73542 -17.46706,0 -6.19713,-10.73542 14.93187,-25.86233 z m 36.98057,0 14.92944,25.86233 -6.19472,10.73542 -17.46707,0 -6.19953,-10.73542 14.93188,-25.86233 z m 36.98055,0 0.97507,1.68772 -9.35349,34.91003 -0.35391,0 -6.19953,-10.73542 14.93186,-25.86233 z m -240.37367,32.02575 2.63872,4.572 -5.27984,0 2.64112,-4.572 z m 36.98056,0 2.63872,4.572 -5.27744,0 2.63872,-4.572 z m 36.98057,0 2.63872,4.572 -5.27745,0 2.63873,-4.572 z m 36.98056,0 2.63872,4.572 -5.27744,0 2.63872,-4.572 z m 36.98057,0 2.63872,4.572 -5.27745,0 2.63873,-4.572 z m 36.98057,0 2.63871,4.572 -5.27984,0 2.64113,-4.572 z m 36.98056,0 2.63872,4.572 -5.27745,0 2.63873,-4.572 z M 375.17656,534.9509 a 30.817137,30.817137 0 0 0 -30.81714,30.81714 30.817137,30.817137 0 0 0 30.81714,30.81713 30.817137,30.817137 0 0 0 30.81713,-30.81713 30.817137,30.817137 0 0 0 -30.81713,-30.81714 z m 141.20507,0 a 30.817137,30.817137 0 0 0 -30.81713,30.81714 30.817137,30.817137 0 0 0 30.81713,30.81713 30.817137,30.817137 0 0 0 30.81715,-30.81713 30.817137,30.817137 0 0 0 -30.81715,-30.81714 z"
     id="rect4211"
     mask="url(#mask5006)" />
</svg>
